<?xml version="1.0" encoding="UTF-8" standalone="no"?>
<svg
   id="svg11"
   xml:space="preserve"
   viewBox="0 0 1004.8616 225.62456"
   y="0px"
   x="0px"
   version="1.1"
   sodipodi:docname="grengin-logo.svg"
   width="997.62701"
   height="224"
   inkscape:version="1.3.2 (091e20e, 2023-11-25)"
   inkscape:export-filename="grengin-logo.png"
   inkscape:export-xdpi="219.42999"
   inkscape:export-ydpi="219.42999"
   xmlns:inkscape="http://www.inkscape.org/namespaces/inkscape"
   xmlns:sodipodi="http://sodipodi.sourceforge.net/DTD/sodipodi-0.dtd"
   xmlns="http://www.w3.org/2000/svg"
   xmlns:svg="http://www.w3.org/2000/svg"
   xmlns:rdf="http://www.w3.org/1999/02/22-rdf-syntax-ns#"
   xmlns:cc="http://creativecommons.org/ns#"
   xmlns:dc="http://purl.org/dc/elements/1.1/"><sodipodi:namedview
     id="namedview1"
     pagecolor="#ffffff"
     bordercolor="#000000"
     borderopacity="0.25"
     inkscape:showpageshadow="2"
     inkscape:pageopacity="0.0"
     inkscape:pagecheckerboard="0"
     inkscape:deskcolor="#d1d1d1"
     showgrid="true"
     showguides="true"
     inkscape:zoom="0.67635198"
     inkscape:cx="469.43013"
     inkscape:cy="79.840085"
     inkscape:window-width="1512"
     inkscape:window-height="865"
     inkscape:window-x="0"
     inkscape:window-y="35"
     inkscape:window-maximized="0"
     inkscape:current-layer="svg11"><inkscape:grid
       id="grid1"
       units="px"
       originx="-25.594345"
       originy="-285.65656"
       spacingx="1"
       spacingy="1"
       empcolor="#0099e5"
       empopacity="0.30196078"
       color="#0099e5"
       opacity="0.14901961"
       empspacing="5"
       dotted="false"
       gridanglex="30"
       gridanglez="30"
       visible="true" /></sodipodi:namedview><metadata
     id="metadata17"><rdf:RDF><cc:Work
         rdf:about=""><dc:format>image/svg+xml</dc:format><dc:type
           rdf:resource="http://purl.org/dc/dcmitype/StillImage" /></cc:Work></rdf:RDF></metadata><defs
     id="defs15" /><g
     transform="matrix(2.06264,0,0,2.06264,-549.1364,-679.61587)"
     id="logo-group"><path
       stroke-miterlimit="2"
       d="m 348.13,371.38 q 2.2853,-6.5578 7.3526,-10.234 5.0674,-3.6763 12.321,-3.7757 v 1.9872 q -8.7437,0.19872 -13.91,5.8622 -5.0674,5.5642 -5.7629,15.401 v 28.119 h -1.9872 v -51.369 h 1.9872 z"
       style="font-variant-ligatures:none;fill:#4079c5;stroke:#4079c5;stroke-width:7.314;stroke-miterlimit:2"
       id="path365454" /><path
       stroke-miterlimit="2"
       d="m 398.7,406.75 q 5.5642,0 10.234,-1.8878 4.7693,-1.9872 7.9488,-5.5642 l 1.391,1.391 q -3.577,3.875 -8.6443,5.9616 -5.0674,2.0866 -10.93,2.0866 -7.0546,0 -12.718,-3.2789 -5.5642,-3.3782 -8.843,-9.2405 -3.1795,-5.8622 -3.1795,-13.215 0,-7.3526 3.1795,-13.215 3.2789,-5.8622 8.843,-9.1411 5.6635,-3.2789 12.718,-3.2789 7.0546,0 12.42,3.2789 5.4648,3.2789 8.4456,9.1411 2.9808,5.8622 2.9808,13.215 h -46.6 q 0,6.8558 2.8814,12.321 2.9808,5.3654 8.1475,8.4456 5.1667,2.9808 11.724,2.9808 z m 0,-47.395 q -6.2597,0 -11.327,2.7821 -4.968,2.6827 -7.9488,7.6507 -2.9808,4.8686 -3.3782,11.228 h 44.513 q -0.69552,-9.7373 -6.5578,-15.699 -5.8622,-5.9616 -15.301,-5.9616 z"
       style="font-variant-ligatures:none;fill:#4079c5;stroke:#4079c5;stroke-width:7.314;stroke-miterlimit:2"
       id="path365456" /><path
       stroke-miterlimit="2"
       d="m 461.97,357.37 q 9.5386,0 14.805,5.3654 5.3654,5.3654 5.3654,14.904 v 31.1 h -1.9872 v -31.1 q 0,-8.6443 -4.8686,-13.414 -4.7693,-4.8686 -13.314,-4.8686 -9.5386,0.19872 -15.202,5.8622 -5.6635,5.6635 -6.4584,15.6 v 27.92 H 438.323 V 357.37 h 1.9872 v 14.507 q 2.484,-6.8558 8.0482,-10.632 5.5642,-3.7757 13.612,-3.875 z"
       style="font-variant-ligatures:none;fill:#4079c5;stroke:#4079c5;stroke-width:7.314;stroke-miterlimit:2"
       id="path365458" /><path
       stroke-miterlimit="2"
       d="m 544.7,357.37 v 45.606 q 0,7.5514 -3.0802,13.215 -2.9808,5.6635 -8.545,8.7437 -5.4648,3.0802 -12.817,3.0802 -6.061,0 -11.128,-2.2853 -4.968,-2.1859 -9.5386,-6.6571 l 1.391,-1.391 q 4.1731,4.1731 8.843,6.2597 4.7693,2.0866 10.433,2.0866 6.7565,0 11.824,-2.8814 5.0674,-2.7821 7.8494,-8.0482 2.7821,-5.1667 2.7821,-12.122 v -10.731 q -2.6827,6.7565 -8.6443,10.731 -5.8622,3.875 -13.513,3.875 -6.8558,0 -12.321,-3.1795 -5.4648,-3.1795 -8.545,-8.7437 -3.0802,-5.6635 -3.0802,-12.718 0,-7.1539 3.0802,-12.817 3.0802,-5.6635 8.545,-8.843 5.4648,-3.1795 12.321,-3.1795 7.6507,0 13.513,3.9744 5.9616,3.9744 8.6443,10.731 v -14.705 z m -24.144,47.593 q 6.359,0 11.327,-2.8814 5.0674,-2.9808 7.9488,-8.1475 2.8814,-5.2661 2.8814,-11.724 0,-6.5578 -2.8814,-11.724 -2.8814,-5.2661 -7.9488,-8.2469 -4.968,-2.9808 -11.327,-2.9808 -6.359,0 -11.426,2.9808 -4.968,2.9808 -7.8494,8.2469 -2.7821,5.1667 -2.7821,11.724 0,6.4584 2.7821,11.724 2.8814,5.1667 7.8494,8.1475 5.0674,2.8814 11.426,2.8814 z"
       style="font-variant-ligatures:none;fill:#4079c5;stroke:#4079c5;stroke-width:7.314;stroke-miterlimit:2"
       id="path365460" /><path
       stroke-miterlimit="2"
       d="m 565.05,357.37 h 1.9872 v 51.369 H 565.05 Z m 0.9936,-17.388 q 0.99361,0 1.7885,0.79488 0.79487,0.69552 0.79487,1.7885 0,0.9936 -0.79487,1.7885 -0.79488,0.79488 -1.7885,0.79488 -1.093,0 -1.8878,-0.79488 -0.69552,-0.79488 -0.69552,-1.7885 0,-1.093 0.69552,-1.7885 0.79487,-0.79488 1.8878,-0.79488 z"
       style="font-variant-ligatures:none;fill:#4079c5;stroke:#4079c5;stroke-width:7.314;stroke-miterlimit:2"
       id="path365462" /><path
       stroke-miterlimit="2"
       d="m 612.57,357.37 q 9.5386,0 14.805,5.3654 5.3654,5.3654 5.3654,14.904 v 31.1 h -1.9872 v -31.1 q 0,-8.6443 -4.8686,-13.414 -4.7693,-4.8686 -13.314,-4.8686 -9.5386,0.19872 -15.202,5.8622 -5.6635,5.6635 -6.4584,15.6 v 27.92 H 588.923 V 357.37 h 1.9872 v 14.507 q 2.484,-6.8558 8.0482,-10.632 5.5642,-3.7757 13.612,-3.875 z"
       style="font-variant-ligatures:none;fill:#4079c5;stroke:#4079c5;stroke-width:7.314;stroke-miterlimit:2"
       id="path365464" /><path
       style="fill:#2d906b;stroke-width:0.54"
       d="m 701.72,340.06 c -34.478,0.002 -40.975,0.009 -41.148,0.0438 -0.11379,0.0228 -0.29604,0.0702 -0.40532,0.10598 -0.10959,0.0354 -0.30355,0.11619 -0.43085,0.17925 -0.1276,0.0627 -0.30414,0.16212 -0.39241,0.22067 -0.0883,0.0586 -0.2405,0.17654 -0.33867,0.26181 -0.0979,0.0853 -0.2498,0.23779 -0.33777,0.33837 -0.0877,0.10088 -0.20897,0.25761 -0.26932,0.34858 -0.0603,0.0907 -0.15402,0.2528 -0.20866,0.36029 -0.0543,0.10718 -0.13751,0.31675 -0.18525,0.46537 -0.0474,0.14862 -0.10449,0.3714 -0.127,0.4954 -0.0342,0.18915 -0.0408,6.777 -0.0408,41.073 0,34.376 0.007,40.883 0.0408,41.073 0.0228,0.12369 0.0747,0.33326 0.11559,0.46537 0.0408,0.1321 0.1261,0.34467 0.18945,0.47197 0.0634,0.12761 0.16303,0.30415 0.22158,0.39242 0.0586,0.0883 0.17324,0.23659 0.25461,0.32936 0.0814,0.0931 0.23118,0.2435 0.33296,0.33417 0.10178,0.091 0.2552,0.21167 0.34077,0.26842 0.0856,0.057 0.26361,0.15762 0.39572,0.22397 0.1321,0.066 0.34828,0.15402 0.48038,0.19486 0.13211,0.0411 0.34168,0.0931 0.46538,0.11589 0.18945,0.0342 6.696,0.0408 41.073,0.0408 34.296,0 40.884,-0.007 41.073,-0.0408 0.124,-0.0225 0.34677,-0.0796 0.49539,-0.127 0.14862,-0.0477 0.35819,-0.1309 0.46537,-0.18525 0.10749,-0.0546 0.26962,-0.14832 0.36029,-0.20867 0.091,-0.0603 0.2477,-0.18164 0.34858,-0.26931 0.10058,-0.088 0.2531,-0.23989 0.33837,-0.33777 0.0853,-0.0982 0.20056,-0.2468 0.25611,-0.33027 0.0555,-0.0838 0.15492,-0.2603 0.22067,-0.39241 0.0661,-0.1321 0.14862,-0.32846 0.18375,-0.43625 0.0354,-0.10778 0.0871,-0.29693 0.11529,-0.42033 l 0.0514,-0.22428 0.009,-40.623 c 0.006,-26.672 -5.4e-4,-40.762 -0.0201,-41.028 -0.0165,-0.22308 -0.0567,-0.50921 -0.0895,-0.63623 -0.0324,-0.1267 -0.0958,-0.32276 -0.14021,-0.43535 -0.0444,-0.11229 -0.13541,-0.29904 -0.20176,-0.41463 -0.0667,-0.11559 -0.17805,-0.28463 -0.2474,-0.3759 -0.0697,-0.091 -0.20387,-0.2441 -0.29814,-0.33987 -0.0946,-0.0958 -0.27532,-0.2513 -0.40232,-0.34528 -0.127,-0.0943 -0.33267,-0.22158 -0.45727,-0.28313 -0.1246,-0.0615 -0.32546,-0.14561 -0.44616,-0.18674 -0.12099,-0.0411 -0.32755,-0.0952 -0.45906,-0.1201 -0.21287,-0.0402 -4.7618,-0.045 -41.181,-0.0426 z m 0.027,6.7527 h 37.14 v 74.309 h -74.282 v -12.46 c 0,-6.8531 0.007,-12.46 0.0144,-12.46 0.008,0 1.9855,0.98507 4.3946,2.1894 2.8217,1.4099 4.4697,2.2176 4.6318,2.2692 0.13841,0.0439 0.35068,0.0991 0.47197,0.1225 0.121,0.0234 0.39332,0.0427 0.60469,0.0427 0.21738,0 0.4882,-0.0198 0.6236,-0.0454 0.1315,-0.0249 0.33596,-0.0784 0.45426,-0.11859 0.118,-0.0402 0.32456,-0.1279 0.45907,-0.19516 0.1342,-0.0673 0.34017,-0.19185 0.45726,-0.27711 0.13331,-0.0967 2.3911,-2.3305 6.0286,-5.9643 l 5.8153,-5.8098 5.6608,4.2463 c 3.1138,2.3353 5.7488,4.2958 5.8563,4.3571 0.10749,0.0609 0.31375,0.15793 0.45817,0.21527 0.14472,0.0576 0.3711,0.12731 0.50321,0.15523 0.1321,0.0276 0.39571,0.057 0.58546,0.0652 0.23989,0.0102 0.43595,-3e-4 0.6425,-0.0342 0.16363,-0.0267 0.39991,-0.0832 0.52542,-0.1252 0.1255,-0.042 0.31224,-0.1165 0.41493,-0.16544 0.10298,-0.0489 0.29213,-0.15792 0.42033,-0.24229 0.19275,-0.1264 2.1152,-2.0341 10.99,-10.905 l 10.756,-10.751 5.4e-4,2.5968 c 5.4e-4,1.4285 0.0138,2.7646 0.0297,2.9694 0.0165,0.21166 0.0616,0.49449 0.10448,0.65664 0.0417,0.15642 0.12791,0.39541 0.19156,0.53082 0.0634,0.13571 0.18705,0.35368 0.27471,0.48429 0.0877,0.13091 0.26872,0.34678 0.40233,0.48008 0.13331,0.13301 0.33056,0.30414 0.43775,0.3795 0.10748,0.0757 0.30384,0.19216 0.43654,0.25911 0.13301,0.0666 0.34918,0.15672 0.48039,0.19966 0.1315,0.0432 0.3675,0.0979 0.52422,0.1219 0.15703,0.0237 0.38671,0.0432 0.51041,0.0432 0.124,0 0.35698,-0.0198 0.51791,-0.0441 0.16093,-0.0243 0.39752,-0.079 0.52542,-0.1213 0.12791,-0.0423 0.33987,-0.1309 0.47078,-0.19665 0.1309,-0.0661 0.34497,-0.19666 0.47528,-0.29064 0.1306,-0.094 0.32936,-0.26781 0.44195,-0.38641 0.11259,-0.11859 0.27562,-0.32035 0.36209,-0.44885 0.0868,-0.12821 0.20957,-0.34408 0.27292,-0.47979 0.0636,-0.13541 0.14982,-0.3744 0.19155,-0.53082 0.0429,-0.16213 0.088,-0.44496 0.10448,-0.65664 0.0174,-0.22338 0.0288,-3.0174 0.0288,-6.9773 0,-3.9602 -0.0114,-6.7543 -0.0288,-6.9773 -0.0165,-0.21167 -0.0616,-0.4945 -0.10448,-0.65664 -0.0417,-0.15643 -0.1279,-0.39542 -0.19155,-0.53083 -0.0634,-0.13571 -0.18615,-0.35158 -0.27292,-0.47978 -0.0865,-0.12851 -0.2495,-0.33027 -0.36209,-0.44886 -0.11259,-0.1186 -0.31135,-0.29243 -0.44195,-0.38641 -0.13031,-0.094 -0.34438,-0.22458 -0.47528,-0.29063 -0.13091,-0.0658 -0.34287,-0.15433 -0.47078,-0.19666 -0.1279,-0.0423 -0.36449,-0.097 -0.52542,-0.1213 -0.251,-0.0378 -1.2847,-0.0441 -7.2733,-0.0441 -5.9303,0 -7.0238,0.007 -7.2657,0.0432 -0.15672,0.024 -0.39271,0.0787 -0.52422,0.1219 -0.1312,0.0429 -0.34738,0.13301 -0.48038,0.19966 -0.13271,0.067 -0.32696,0.18225 -0.43115,0.25671 -0.10448,0.0741 -0.27742,0.21677 -0.38401,0.31675 -0.10688,0.0997 -0.27531,0.28883 -0.37439,0.42034 -0.0988,0.1315 -0.2465,0.37589 -0.32817,0.54345 -0.0814,0.16754 -0.18554,0.43955 -0.23118,0.60469 l -0.0832,0.30024 v 1.1409 l 0.0826,0.29633 c 0.0454,0.16303 0.13451,0.40743 0.19816,0.54281 0.0634,0.13571 0.18705,0.35368 0.27472,0.48429 0.0877,0.1309 0.26871,0.34677 0.40232,0.48008 0.13331,0.13301 0.33056,0.30414 0.43775,0.3795 0.10718,0.0757 0.30324,0.19185 0.43535,0.25821 0.1321,0.0663 0.32816,0.15012 0.43535,0.18615 0.10718,0.0363 0.28312,0.0874 0.39031,0.11378 0.16933,0.0414 0.58125,0.0501 3.115,0.0646 l 2.9198,0.0165 -9.585,9.5839 -9.585,9.5839 -5.6446,-4.2331 c -3.1045,-2.328 -5.7348,-4.2865 -5.845,-4.3523 -0.11019,-0.0655 -0.30324,-0.16063 -0.42934,-0.21077 -0.1258,-0.0504 -0.33297,-0.11979 -0.45997,-0.15372 -0.16303,-0.0438 -0.36209,-0.0664 -0.67613,-0.0772 -0.28223,-0.01 -0.52933,-0.002 -0.67554,0.0216 -0.1267,0.0204 -0.33867,0.0709 -0.47078,0.11229 -0.13211,0.0411 -0.34647,0.12791 -0.47648,0.19275 -0.13,0.0646 -0.30955,0.16604 -0.39932,0.22578 -0.0898,0.0594 -0.28763,0.22008 -0.43925,0.35669 -0.15192,0.13661 -2.8826,2.8559 -6.0685,6.0431 l -5.7985,5.7942 -4.7239,-2.3598 -4.7234,-2.3598 v -41.811 z"
       id="icon" /><path
       stroke-miterlimit="2"
       d="m 325.79,357.37 v 45.606 q 0,7.5514 -3.0802,13.215 -2.9808,5.6635 -8.545,8.7437 -5.4648,3.0802 -12.817,3.0802 -6.061,0 -11.128,-2.2853 -4.968,-2.1859 -9.5386,-6.6571 l 1.391,-1.391 q 4.1731,4.1731 8.843,6.2597 4.7693,2.0866 10.433,2.0866 6.7565,0 11.824,-2.8814 5.0674,-2.7821 7.8494,-8.0482 2.7821,-5.1667 2.7821,-12.122 v -10.731 q -2.6827,6.7565 -8.6443,10.731 -5.8622,3.875 -13.513,3.875 -6.8558,0 -12.321,-3.1795 -5.4648,-3.1795 -8.545,-8.7437 -3.0802,-5.6635 -3.0802,-12.718 0,-7.1539 3.0802,-12.817 3.0802,-5.6635 8.545,-8.843 5.4648,-3.1795 12.321,-3.1795 7.6507,0 13.513,3.9744 5.9616,3.9744 8.6443,10.731 v -14.705 z m -24.144,47.593 q 6.359,0 11.327,-2.8814 5.0674,-2.9808 7.9488,-8.1475 2.8814,-5.2661 2.8814,-11.724 0,-6.5578 -2.8814,-11.724 -2.8814,-5.2661 -7.9488,-8.2469 -4.968,-2.9808 -11.327,-2.9808 -6.359,0 -11.426,2.9808 -4.968,2.9808 -7.8494,8.2469 -2.7821,5.1667 -2.7821,11.724 0,6.4584 2.7821,11.724 2.8814,5.1667 7.8494,8.1475 5.0674,2.8814 11.426,2.8814 z"
       style="font-variant-ligatures:none;fill:#4079c5;stroke:#4079c5;stroke-width:7.314;stroke-miterlimit:2"
       id="path365452" /></g></svg>
